<svg width="24" height="24" viewBox="0 0 24 24" fill="none" xmlns="http://www.w3.org/2000/svg">
<path d="M11.8599 11.9203C11.4999 11.9203 11.1333 11.8537 10.8466 11.727L6.91327 9.98033C5.91327 9.53366 5.7666 8.93366 5.7666 8.60699C5.7666 8.28033 5.91327 7.68033 6.91327 7.23366L10.8466 5.48699C11.4266 5.22699 12.2999 5.22699 12.8799 5.48699L16.8199 7.23366C17.8133 7.67366 17.9666 8.28033 17.9666 8.60699C17.9666 8.93366 17.8199 9.53366 16.8199 9.98033L12.8799 11.727C12.5866 11.8603 12.2266 11.9203 11.8599 11.9203ZM11.8599 6.29366C11.6333 6.29366 11.4133 6.32699 11.2533 6.40033L7.31993 8.14699C6.91327 8.33366 6.7666 8.52033 6.7666 8.60699C6.7666 8.69366 6.91327 8.88699 7.31327 9.06699L11.2466 10.8137C11.5666 10.9537 12.1466 10.9537 12.4666 10.8137L16.4066 9.06699C16.8133 8.88699 16.9599 8.69366 16.9599 8.60699C16.9599 8.52033 16.8133 8.32699 16.4066 8.14699L12.4733 6.40033C12.3133 6.33366 12.0866 6.29366 11.8599 6.29366Z" fill="#555555"/>
<path d="M12 15.393C11.7467 15.393 11.4933 15.3397 11.2533 15.233L6.72667 13.2197C6.04 12.9197 5.5 12.0863 5.5 11.333C5.5 11.0597 5.72667 10.833 6 10.833C6.27333 10.833 6.5 11.0597 6.5 11.333C6.5 11.6997 6.8 12.1597 7.13333 12.313L11.66 14.3263C11.8733 14.4197 12.12 14.4197 12.34 14.3263L16.8667 12.313C17.2 12.1663 17.5 11.6997 17.5 11.333C17.5 11.0597 17.7267 10.833 18 10.833C18.2733 10.833 18.5 11.0597 18.5 11.333C18.5 12.0863 17.96 12.9197 17.2733 13.2263L12.7467 15.2397C12.5067 15.3397 12.2533 15.393 12 15.393Z" fill="#555555"/>
<path d="M12 18.7268C11.7467 18.7268 11.4933 18.6735 11.2533 18.5668L6.72667 16.5535C5.98 16.2202 5.5 15.4802 5.5 14.6602C5.5 14.3868 5.72667 14.1602 6 14.1602C6.27333 14.1602 6.5 14.3935 6.5 14.6668C6.5 15.0868 6.74667 15.4735 7.13333 15.6468L11.66 17.6602C11.8733 17.7535 12.12 17.7535 12.34 17.6602L16.8667 15.6468C17.2533 15.4735 17.5 15.0935 17.5 14.6668C17.5 14.3935 17.7267 14.1668 18 14.1668C18.2733 14.1668 18.5 14.3935 18.5 14.6668C18.5 15.4868 18.02 16.2268 17.2733 16.5602L12.7467 18.5735C12.5067 18.6735 12.2533 18.7268 12 18.7268Z" fill="#555555"/>
</svg>
