<svg xmlns="http://www.w3.org/2000/svg" xmlns:xlink="http://www.w3.org/1999/xlink" version="1.1" width="75" height="80" viewBox="0 0 1080 1080" xml:space="preserve">
<desc>Created with Fabric.js 5.2.4</desc>
<defs>
</defs>
<g transform="matrix(1 0 0 1 540 540)" id="1b030e45-55f5-4e1d-9f11-aba76468b8f7"  >
<rect style="stroke: none; stroke-width: 1; stroke-dasharray: none; stroke-linecap: butt; stroke-dashoffset: 0; stroke-linejoin: miter; stroke-miterlimit: 4; fill: rgb(255,255,255); fill-rule: nonzero; opacity: 1; visibility: hidden;" vector-effect="non-scaling-stroke"  x="-540" y="-540" rx="0" ry="0" width="1080" height="1080" />
</g>
<g transform="matrix(1 0 0 1 540 540)" id="4b7e19e5-c700-443b-a237-fb225b88641a"  >
</g>
<g transform="matrix(15.43 0 0 15.43 586.84 521.91)"  >
<path style="stroke: none; stroke-width: 1; stroke-dasharray: none; stroke-linecap: butt; stroke-dashoffset: 0; stroke-linejoin: miter; stroke-miterlimit: 4; fill: rgb(2,63,136); fill-rule: nonzero; opacity: 1;" vector-effect="non-scaling-stroke"  transform=" translate(-37.03, -33.33)" d="M 65.4521 20.3512 C 63.7733 16.385 61.3687 12.8221 58.3116 9.75771 C 55.2546 6.70064 51.6843 4.29603 47.7182 2.61721 C 43.6128 0.879733 39.2434 0 34.7495 0 C 28.7966 0 22.9537 1.59085 17.8512 4.59661 C 12.9541 7.48506 8.85597 11.5905 5.98218 16.495 L 6.47336 16.7809 C 12.3383 6.77395 23.1516 0.571827 34.7495 0.571827 C 52.8133 0.571827 67.5049 15.2634 67.5049 33.3272 C 67.5049 51.3251 52.9159 65.98 34.9401 66.0826 L 34.9401 66.6545 C 39.3754 66.6325 43.6714 65.7527 47.7255 64.0373 C 51.6917 62.3584 55.2546 59.9538 58.319 56.8967 C 61.376 53.8397 63.7807 50.2694 65.4595 46.3033 C 67.197 42.1979 68.0767 37.8285 68.0767 33.3346 C 68.0767 28.8406 67.1896 24.4639 65.4521 20.3512 Z" stroke-linecap="round" />
</g>
<g transform="matrix(15.43 0 0 15.43 278.57 664.82)"  >
<path style="stroke: none; stroke-width: 1; stroke-dasharray: none; stroke-linecap: butt; stroke-dashoffset: 0; stroke-linejoin: miter; stroke-miterlimit: 4; fill: rgb(2,63,136); fill-rule: nonzero; opacity: 1;" vector-effect="non-scaling-stroke"  transform=" translate(-17.04, -42.59)" d="M 3.4163 33.3272 C 3.4163 28.5693 4.49397 23.8774 6.56134 19.6327 C 6.94989 18.8336 6.66398 17.8732 5.89421 17.4333 L 5.85756 17.4114 C 5.00715 16.9202 3.92214 17.2501 3.48961 18.1371 C 2.5439 20.0799 1.78146 22.1033 1.21696 24.178 C 0.410542 27.1471 0 30.2261 0 33.3272 C 0 38.0191 0.916389 42.5717 2.7345 46.8531 C 4.48664 50.9878 6.98655 54.7047 10.1829 57.9011 C 13.3719 61.0901 17.0888 63.5973 21.2309 65.3495 C 24.7572 66.8377 28.4667 67.7248 32.2789 67.996 C 33.2612 68.062 34.0897 67.2922 34.0897 66.3099 L 34.0897 66.2732 C 34.0897 65.3788 33.4005 64.653 32.5061 64.587 C 16.2677 63.4214 3.4163 49.8442 3.4163 33.3272 Z" stroke-linecap="round" />
</g>
<g transform="matrix(15.43 0 0 15.43 560.71 524.41)"  >
<path style="stroke: none; stroke-width: 1; stroke-dasharray: none; stroke-linecap: butt; stroke-dashoffset: 0; stroke-linejoin: miter; stroke-miterlimit: 4; fill: rgb(237,236,252); fill-rule: nonzero; opacity: 1;" vector-effect="non-scaling-stroke"  transform=" translate(-27.54, -27.54)" d="M 27.543 55.086 C 42.7546 55.086 55.086 42.7546 55.086 27.543 C 55.086 12.3314 42.7546 0 27.543 0 C 12.3314 0 0 12.3314 0 27.543 C 0 42.7546 12.3314 55.086 27.543 55.086 Z" stroke-linecap="round" />
</g>
<g transform="matrix(15.43 0 0 15.43 540 492.02)"  >
<path style="stroke: none; stroke-width: 1; stroke-dasharray: none; stroke-linecap: butt; stroke-dashoffset: 0; stroke-linejoin: miter; stroke-miterlimit: 4; fill: rgb(2,63,136); fill-rule: evenodd; opacity: 1;" vector-effect="non-scaling-stroke"  transform=" translate(-7.6, -7.6)" d="M 0.246757 0.246757 C 0.404961 0.0887506 0.619413 0 0.843008 0 C 1.0666 0 1.28105 0.0887506 1.43926 0.246757 L 14.9393 13.7468 C 15.0222 13.824 15.0886 13.9172 15.1348 14.0207 C 15.1809 14.1242 15.2057 14.2359 15.2077 14.3492 C 15.2097 14.4625 15.1888 14.575 15.1464 14.6801 C 15.104 14.7851 15.0408 14.8806 14.9607 14.9607 C 14.8806 15.0408 14.7851 15.104 14.6801 15.1464 C 14.575 15.1888 14.4625 15.2097 14.3492 15.2077 C 14.2359 15.2057 14.1242 15.1809 14.0207 15.1348 C 13.9172 15.0886 13.824 15.0222 13.7468 14.9393 L 0.246757 1.43926 C 0.0887506 1.28105 0 1.0666 0 0.843008 C 0 0.619413 0.0887506 0.404961 0.246757 0.246757 Z" stroke-linecap="round" />
</g>
<g transform="matrix(15.43 0 0 15.43 540 491.7)"  >
<path style="stroke: none; stroke-width: 1; stroke-dasharray: none; stroke-linecap: butt; stroke-dashoffset: 0; stroke-linejoin: miter; stroke-miterlimit: 4; fill: rgb(2,63,136); fill-rule: evenodd; opacity: 1;" vector-effect="non-scaling-stroke"  transform=" translate(-7.6, -7.58)" d="M 14.9392 0.246757 C 15.0972 0.404961 15.186 0.619413 15.186 0.843008 C 15.186 1.0666 15.0972 1.28105 14.9392 1.43926 L 1.43922 14.9393 C 1.27927 15.0883 1.06772 15.1694 0.849129 15.1656 C 0.63054 15.1617 0.421982 15.0732 0.267392 14.9186 C 0.112803 14.764 0.0242519 14.5554 0.0203951 14.3368 C 0.0165384 14.1183 0.0976767 13.9067 0.246717 13.7468 L 13.7467 0.246757 C 13.9049 0.0887506 14.1194 0 14.343 0 C 14.5666 0 14.781 0.0887506 14.9392 0.246757 Z" stroke-linecap="round" />
</g>
</svg>