<svg width="40" height="39" viewBox="0 0 40 39" fill="none" xmlns="http://www.w3.org/2000/svg">
<path d="M20.4152 5.90592C20.4152 6.47525 20.8282 6.95592 21.3836 7.09125C23.9923 7.72498 26.3639 9.09542 28.2156 11.0393C28.4031 11.2429 28.6536 11.3778 28.9269 11.4222C29.2002 11.4666 29.4805 11.418 29.7229 11.2843L33.8599 8.89492C34.0026 8.81611 34.1262 8.70692 34.222 8.57508C34.3178 8.44325 34.3835 8.29197 34.4145 8.13195C34.4454 7.97192 34.4408 7.80706 34.401 7.649C34.3613 7.49095 34.2872 7.34356 34.1842 7.21725C31.0043 3.41977 26.5844 0.868507 21.7056 0.0142507C21.5447 -0.011745 21.3801 -0.0020921 21.2233 0.0425269C21.0666 0.0871458 20.9215 0.165642 20.7985 0.27247C20.6754 0.379298 20.5773 0.51185 20.5111 0.660761C20.4448 0.809673 20.4121 0.971309 20.4152 1.13425V5.90592ZM32.0819 20.6992C32.0819 19.3272 31.8859 18.0042 31.5172 16.7512C31.4348 16.4867 31.4436 16.2022 31.5421 15.9432C31.6407 15.6843 31.8234 15.466 32.0609 15.3233L36.1909 12.9363C36.3308 12.8522 36.4874 12.7999 36.6497 12.783C36.812 12.7661 36.9761 12.785 37.1303 12.8384C37.2845 12.8918 37.4251 12.9784 37.5422 13.0921C37.6592 13.2057 37.75 13.3437 37.8079 13.4963C39.5065 18.148 39.5065 23.2505 37.8079 27.9022C37.7502 28.0547 37.6598 28.1927 37.5429 28.3063C37.426 28.42 37.2856 28.5066 37.1316 28.56C36.9776 28.6134 36.8137 28.6324 36.6515 28.6155C36.4894 28.5986 36.3329 28.5463 36.1932 28.4622L32.0609 26.0752C31.8234 25.9325 31.6407 25.7142 31.5421 25.4553C31.4436 25.1963 31.4348 24.9118 31.5172 24.6472C31.8929 23.3649 32.0831 22.0355 32.0819 20.6992Z" fill="#023F88"/>
<path fill-rule="evenodd" clip-rule="evenodd" d="M31.4355 31.1548C31.6653 31.3618 31.8035 31.6516 31.8197 31.9605C31.8359 32.2695 31.7288 32.5722 31.5218 32.8021C28.966 35.6405 25.577 37.5968 21.8408 38.3904C21.69 38.425 21.5337 38.4293 21.3812 38.4029C21.2287 38.3765 21.083 38.3201 20.9525 38.2368C20.8221 38.1536 20.7094 38.0452 20.6213 37.918C20.5331 37.7908 20.4711 37.6474 20.4389 37.496C20.4067 37.3446 20.4049 37.1883 20.4337 37.0362C20.4625 36.8842 20.5213 36.7394 20.6066 36.6102C20.6919 36.4811 20.802 36.3702 20.9306 36.2841C21.0592 36.1979 21.2036 36.1382 21.3555 36.1084C24.6091 35.4169 27.5602 33.713 29.7858 31.2411C29.8884 31.1269 30.0124 31.0341 30.1509 30.968C30.2894 30.9019 30.4395 30.8637 30.5927 30.8557C30.746 30.8477 30.8993 30.8699 31.0439 30.9213C31.1885 30.9726 31.3216 31.0519 31.4355 31.1548ZM4.73048 31.1548C4.96041 30.9478 5.26311 30.8407 5.57203 30.8568C5.88094 30.873 6.17078 31.0112 6.37782 31.2411C8.60346 33.713 11.5546 35.4169 14.8082 36.1084C14.96 36.1382 15.1045 36.1979 15.233 36.2841C15.3616 36.3702 15.4717 36.4811 15.557 36.6102C15.6424 36.7394 15.7011 36.8842 15.7299 37.0362C15.7587 37.1883 15.7569 37.3446 15.7247 37.496C15.6925 37.6474 15.6306 37.7908 15.5424 37.918C15.4542 38.0452 15.3416 38.1536 15.2111 38.2368C15.0806 38.3201 14.9349 38.3765 14.7824 38.4029C14.6299 38.4293 14.4737 38.425 14.3228 38.3904C10.5875 37.5963 7.19937 35.6401 4.64415 32.8021C4.43721 32.5722 4.33005 32.2695 4.34624 31.9605C4.36243 31.6516 4.50064 31.3618 4.73048 31.1548ZM2.35515 14.3664C2.64897 14.4625 2.89263 14.6713 3.03263 14.9469C3.17263 15.2226 3.19751 15.5425 3.10182 15.8364C2.07387 18.9999 2.07387 22.4076 3.10182 25.5711C3.15726 25.7186 3.18222 25.8759 3.17521 26.0334C3.1682 26.1908 3.12934 26.3452 3.061 26.4873C2.99266 26.6293 2.89625 26.756 2.77758 26.8598C2.65892 26.9635 2.52046 27.0421 2.37056 27.0909C2.22067 27.1396 2.06245 27.1575 1.90546 27.1434C1.74847 27.1294 1.59596 27.0836 1.45714 27.009C1.31831 26.9343 1.19606 26.8323 1.09775 26.7091C0.999442 26.5859 0.927121 26.444 0.885151 26.2921C-0.29505 22.66 -0.29505 18.7475 0.885151 15.1154C0.980777 14.8212 1.18937 14.577 1.46504 14.4365C1.74071 14.296 2.06089 14.2708 2.35515 14.3664ZM15.7065 3.91309C15.7708 4.2157 15.7123 4.53146 15.5438 4.79094C15.3754 5.05042 15.1107 5.23236 14.8082 5.29675C11.5546 5.98829 8.60346 7.69214 6.37782 10.1641C6.27517 10.2779 6.1511 10.3704 6.0127 10.4363C5.8743 10.5022 5.72428 10.5402 5.57121 10.5481C5.41813 10.556 5.26499 10.5337 5.12054 10.4824C4.97609 10.4311 4.84315 10.3519 4.72932 10.2493C4.61548 10.1466 4.52298 10.0225 4.4571 9.88414C4.39121 9.74574 4.35323 9.59572 4.34532 9.44264C4.33741 9.28957 4.35973 9.13643 4.411 8.99198C4.46228 8.84753 4.5415 8.71459 4.64415 8.60075C7.1997 5.7636 10.5877 3.8082 14.3228 3.01475C14.6254 2.95044 14.9412 3.00894 15.2007 3.17741C15.4601 3.34587 15.6421 3.6105 15.7065 3.91309Z" fill="#023F88"/>
</svg>
