<svg width="16" height="15" viewBox="0 0 16 15" fill="none" xmlns="http://www.w3.org/2000/svg">
<path d="M14 1.69181H11.6V0.604226C11.6 0.508078 11.5579 0.415868 11.4828 0.347881C11.4078 0.279894 11.3061 0.241699 11.2 0.241699C11.0939 0.241699 10.9922 0.279894 10.9172 0.347881C10.8421 0.415868 10.8 0.508078 10.8 0.604226V1.69181H5.2V0.604226C5.2 0.508078 5.15786 0.415868 5.08284 0.347881C5.00783 0.279894 4.90609 0.241699 4.8 0.241699C4.69391 0.241699 4.59217 0.279894 4.51716 0.347881C4.44214 0.415868 4.4 0.508078 4.4 0.604226V1.69181H2C1.46976 1.69238 0.961423 1.88354 0.586488 2.22335C0.211553 2.56316 0.000635143 3.02388 0 3.50444V12.9302C0.000635143 13.4107 0.211553 13.8714 0.586488 14.2112C0.961423 14.5511 1.46976 14.7422 2 14.7428H14C14.5304 14.7428 15.0391 14.5518 15.4142 14.2119C15.7893 13.8719 16 13.4109 16 12.9302V3.50444C16 3.0237 15.7893 2.56265 15.4142 2.22272C15.0391 1.88278 14.5304 1.69181 14 1.69181ZM15.2 12.9302C15.2 13.2186 15.0736 13.4952 14.8485 13.6992C14.6235 13.9031 14.3183 14.0177 14 14.0177H2C1.68174 14.0177 1.37652 13.9031 1.15147 13.6992C0.926428 13.4952 0.8 13.2186 0.8 12.9302V6.76719H15.2V12.9302ZM15.2 6.04213H0.8V3.50444C0.8 2.9041 1.336 2.41686 2 2.41686H4.4V3.50444C4.4 3.60059 4.44214 3.6928 4.51716 3.76079C4.59217 3.82878 4.69391 3.86697 4.8 3.86697C4.90609 3.86697 5.00783 3.82878 5.08284 3.76079C5.15786 3.6928 5.2 3.60059 5.2 3.50444V2.41686H10.8V3.50444C10.8 3.60059 10.8421 3.6928 10.9172 3.76079C10.9922 3.82878 11.0939 3.86697 11.2 3.86697C11.3061 3.86697 11.4078 3.82878 11.4828 3.76079C11.5579 3.6928 11.6 3.60059 11.6 3.50444V2.41686H14C14.3183 2.41686 14.6235 2.53145 14.8485 2.73541C15.0736 2.93937 15.2 3.216 15.2 3.50444V6.04213Z" fill="#635470"/>
</svg>
