<svg width="16" height="16" viewBox="0 0 16 16" fill="none" xmlns="http://www.w3.org/2000/svg">
<path d="M4.50662 14.6666H11.4933C13.3333 14.6666 14.0666 13.5399 14.1533 12.1666L14.4999 6.65992C14.5933 5.21992 13.4466 3.99992 11.9999 3.99992C11.5933 3.99992 11.2199 3.76659 11.0333 3.40659L10.5533 2.43992C10.2466 1.83325 9.44662 1.33325 8.76662 1.33325H7.23995C6.55328 1.33325 5.75328 1.83325 5.44662 2.43992L4.96662 3.40659C4.77995 3.76659 4.40662 3.99992 3.99995 3.99992C2.55328 3.99992 1.40662 5.21992 1.49995 6.65992L1.84662 12.1666C1.92662 13.5399 2.66662 14.6666 4.50662 14.6666Z" stroke="#635470" stroke-linecap="round" stroke-linejoin="round"/>
<path d="M7 5.33325H9" stroke="#635470" stroke-linecap="round" stroke-linejoin="round"/>
<path d="M8.00004 12.0001C9.19337 12.0001 10.1667 11.0267 10.1667 9.83341C10.1667 8.64008 9.19337 7.66675 8.00004 7.66675C6.80671 7.66675 5.83337 8.64008 5.83337 9.83341C5.83337 11.0267 6.80671 12.0001 8.00004 12.0001Z" stroke="#635470" stroke-linecap="round" stroke-linejoin="round"/>
</svg>
