<svg width="16" height="16" viewBox="0 0 16 16" fill="none" xmlns="http://www.w3.org/2000/svg">
<path d="M0.533333 15.1599H0V15.6497H0.533333V15.1599ZM6.93333 6.34403L7.36 6.05017C7.25615 5.92301 7.09155 5.85004 6.91854 5.85445C6.74551 5.85886 6.58559 5.9401 6.48957 6.07236L6.93333 6.34403ZM10.1333 10.2622L9.70667 10.5561C9.80871 10.681 9.96949 10.7537 10.1395 10.752C10.3096 10.7501 10.4685 10.674 10.5673 10.5469L10.1333 10.2622ZM0 0.956543V15.1599H1.06667V0.956543H0ZM0.533333 15.6497H16V14.6702H0.533333V15.6497ZM3.11043 12.493L7.3771 6.61571L6.48957 6.07236L2.2229 11.9496L3.11043 12.493ZM6.50667 6.6379L9.70667 10.5561L10.56 9.96835L7.36 6.05017L6.50667 6.6379ZM10.5673 10.5469L15.9007 3.69008L15.0326 3.12073L9.69934 9.97753L10.5673 10.5469Z" fill="#635470"/>
</svg>
