<svg width="60" height="60" viewBox="0 0 60 60" fill="none" xmlns="http://www.w3.org/2000/svg">
<g clip-path="url(#clip0_1251_6159)">
<path d="M16.3784 34.2714L16.035 33.0586L6.28613 47.256L13.6557 46.0285C13.6637 46.0271 13.6709 46.0305 13.6789 46.0295C13.8518 46.012 14.0263 46.0177 14.1977 46.0466C14.2861 46.0452 14.3744 46.0498 14.4622 46.0603C14.5678 46.0982 14.6701 46.1449 14.7679 46.1999C14.9029 46.2462 15.0325 46.3067 15.1546 46.3806C15.2123 46.4348 15.2669 46.4924 15.3179 46.5529C15.458 46.6691 15.5813 46.8042 15.6842 46.9543L15.7001 46.9719L19.1114 52.6528L22.5979 36.7312L20.0335 36.8532C19.2218 36.8994 18.4184 36.6693 17.7545 36.2004C17.0907 35.7314 16.6055 35.0514 16.3784 34.2714Z" fill="#FDFEFF"/>
<path d="M43.614 34.2665C43.3842 35.0456 42.8982 35.7245 42.2347 36.1937C41.5712 36.6629 40.7687 36.8949 39.957 36.8524L37.3945 36.7304L40.8811 52.6518L44.2924 46.9709L44.306 46.9558C44.4189 46.7848 44.5578 46.6324 44.7177 46.5042C44.7604 46.4675 44.7891 46.4138 44.8344 46.3811C45.0647 46.272 45.296 46.1649 45.5282 46.0599C45.6175 46.049 45.7075 46.0442 45.7975 46.0452C45.9682 46.0168 46.1419 46.0112 46.314 46.0286L46.3369 46.0276L53.7064 47.2551L43.9571 33.0566L43.614 34.2665Z" fill="#FDFEFF"/>
<path d="M59.9824 50.0582C60.0318 49.7217 59.9539 49.3789 59.7639 49.0968C59.7367 49.0191 59.7044 48.9432 59.6672 48.8697L59.6463 48.8395L46.2719 29.362L48.3403 28.072C49.0414 27.6406 49.5682 26.9764 49.8283 26.1958C50.0885 25.4152 50.0654 24.5681 49.7633 23.8028L48.2485 20.0022L49.7633 16.2035C50.0656 15.4379 50.0887 14.5905 49.8286 13.8096C49.5684 13.0286 49.0416 12.3641 48.3403 11.9323L44.7321 9.68237L43.6141 5.73725C43.3938 4.95286 42.9105 4.2679 42.2451 3.79714C41.5797 3.32637 40.7726 3.09839 39.959 3.15139L35.61 3.3584L32.2287 0.759019L32.2267 0.757019C31.5871 0.265789 30.8029 -0.000361339 29.9961 3.6819e-07C29.1894 0.000362075 28.4055 0.267216 27.7663 0.759019L24.3848 3.35848L20.0358 3.15147C19.2235 3.10593 18.4196 3.3368 17.7555 3.8064C17.0913 4.27601 16.606 4.95664 16.3788 5.73725L15.2607 9.68237L11.6526 11.9322C10.9513 12.364 10.4245 13.0286 10.1643 13.8095C9.90415 14.5904 9.92727 15.4379 10.2296 16.2035L11.7464 20.0021L10.2296 23.8008C9.9273 24.5664 9.90418 25.4138 10.1643 26.1947C10.4245 26.9757 10.9513 27.6402 11.6526 28.072L13.7211 29.3619L0.347584 48.838L0.325828 48.8697C0.288649 48.9432 0.256329 49.019 0.229075 49.0967C0.141269 49.2449 0.0734122 49.404 0.0272636 49.5698C0.00129141 49.7313 -0.00428976 49.8953 0.0106512 50.0581C0.00101516 50.1479 -0.00208864 50.2383 0.00136418 50.3286L0.00808923 50.3476C0.0285698 50.4165 0.0528315 50.4841 0.0807638 50.5503C0.12341 50.7215 0.188558 50.8863 0.274509 51.0405C0.319013 51.0997 0.366734 51.1565 0.417457 51.2105C0.5222 51.352 0.645503 51.4787 0.784052 51.5874C0.80763 51.605 0.819119 51.6323 0.843797 51.6489C0.932359 51.7008 1.02492 51.7455 1.1206 51.7827C1.18963 51.8213 1.26086 51.8559 1.33391 51.8862C1.53944 51.959 1.75552 51.9976 1.97355 52.0005C2.08422 52.001 2.19472 51.9918 2.30379 51.9731L12.9692 50.1969L18.2728 59.0294L18.2962 59.0587C18.3128 59.0851 18.3362 59.1056 18.3539 59.131C18.4696 59.2972 18.6103 59.4444 18.7712 59.5675C18.8139 59.6007 18.8542 59.6324 18.8996 59.6622C19.0937 59.7922 19.3091 59.8871 19.5361 59.9424L19.5609 59.9532C19.7022 59.9841 19.8463 59.9998 19.9909 60.0001C20.1959 59.9969 20.3991 59.962 20.5934 59.8965C20.6577 59.8731 20.7208 59.8462 20.7822 59.816C20.8634 59.7876 20.9425 59.7539 21.0191 59.7149C21.0528 59.6944 21.0705 59.6607 21.1027 59.6387C21.2404 59.5424 21.3652 59.4286 21.4739 59.3004C21.6586 59.1299 21.7885 58.9085 21.8471 58.6642C21.8795 58.5962 21.9081 58.5264 21.9325 58.4552L21.9436 58.4279L26.3779 38.178L27.7663 39.2453C28.4061 39.7367 29.1905 40.0031 29.9974 40.0031C30.8044 40.0031 31.5888 39.7367 32.2286 39.2453L33.6153 38.1794L38.0494 58.4278L38.0605 58.4552C38.1495 58.6829 38.2497 58.9061 38.3607 59.1241C38.41 59.1859 38.4628 59.2447 38.5191 59.3003C38.6277 59.4286 38.7525 59.5423 38.8903 59.6387C38.9223 59.6607 38.9401 59.6943 38.9739 59.7148C39.0505 59.7538 39.1296 59.7876 39.2107 59.8159C39.2722 59.8462 39.3352 59.8731 39.3996 59.8965C39.5939 59.9619 39.7971 59.9968 40.0021 60C40.1467 59.9996 40.2908 59.9839 40.4321 59.9531L40.4567 59.9424C40.6838 59.8871 40.8993 59.7922 41.0935 59.6621C41.1388 59.6323 41.179 59.6011 41.2215 59.5679C41.3824 59.4445 41.5232 59.2971 41.6392 59.1309C41.6569 59.105 41.6803 59.085 41.6968 59.0586L41.7201 59.0293L47.0238 50.1968L57.6892 51.9731C57.7982 51.9918 57.9087 52.001 58.0194 52.0004C58.2374 51.9975 58.4535 51.9589 58.6591 51.8862C58.7321 51.8559 58.8033 51.8213 58.8724 51.7827C58.968 51.7455 59.0606 51.7008 59.1492 51.6489C59.1739 51.6323 59.1853 51.6049 59.2089 51.5874C59.3475 51.4787 59.4708 51.3519 59.5755 51.2104C59.6262 51.1564 59.674 51.0997 59.7184 51.0404C59.8044 50.8863 59.8696 50.7215 59.9122 50.5502C59.9401 50.4841 59.9644 50.4164 59.9849 50.3476L59.9916 50.3286C59.9951 50.2383 59.992 50.148 59.9824 50.0582ZM19.1118 52.6522L15.7006 46.9714L15.6847 46.9538C15.5818 46.8037 15.4585 46.6687 15.3184 46.5525C15.2674 46.4919 15.2128 46.4344 15.1551 46.3801C15.033 46.3063 14.9034 46.2457 14.7684 46.1995C14.6706 46.1444 14.5683 46.0977 14.4627 46.0598C14.3749 46.0494 14.2866 46.0448 14.1982 46.0462C14.0268 46.0173 13.8523 46.0116 13.6794 46.0291C13.6714 46.0301 13.6641 46.0266 13.6562 46.0281L6.28663 47.2556L16.0355 33.0581L16.3789 34.2709C16.6061 35.0509 17.0912 35.7309 17.755 36.1999C18.4189 36.6688 19.2223 36.899 20.034 36.8528L22.5984 36.7308L19.1118 52.6522ZM31.998 26.0018C31.998 26.5322 31.7871 27.0409 31.4117 27.416C31.0364 27.791 30.5273 28.0017 29.9965 28.0017C29.4656 28.0017 28.9565 27.791 28.5812 27.416C28.2058 27.0409 27.995 26.5322 27.995 26.0018V17.2386L26.8886 17.7913C26.6535 17.9088 26.3976 17.9788 26.1353 17.9974C25.8731 18.0161 25.6098 17.9829 25.3604 17.8998C24.8568 17.7321 24.4405 17.3713 24.203 16.8968C24.0855 16.6619 24.0154 16.4061 23.9967 16.1441C23.9781 15.8821 24.0113 15.619 24.0944 15.3699C24.2623 14.8666 24.6234 14.4506 25.0982 14.2134L29.1012 12.2135C29.1204 12.2037 29.1413 12.2062 29.1606 12.1974C29.2881 12.1486 29.4202 12.113 29.5549 12.0914C29.6776 12.0542 29.8035 12.0288 29.9311 12.0157C29.954 12.0152 29.9732 12.0025 29.9964 12.0025C30.099 12.0146 30.2005 12.035 30.2997 12.0635C30.4331 12.0765 30.5649 12.103 30.6929 12.1427C30.9199 12.2579 31.1373 12.3913 31.3428 12.5416C31.446 12.6464 31.5371 12.7625 31.6143 12.8877C31.6772 12.9567 31.7349 13.0303 31.7868 13.1079C31.7964 13.127 31.794 13.1479 31.803 13.1675C31.8502 13.2913 31.885 13.4196 31.9068 13.5503C31.9462 13.678 31.9727 13.8094 31.9858 13.9424C31.9864 13.9634 31.9978 13.9809 31.9978 14.0024L31.998 26.0018ZM46.3369 46.0281L46.314 46.0291C46.1419 46.0116 45.9682 46.0172 45.7975 46.0457C45.7075 46.0446 45.6175 46.0495 45.5281 46.0603C45.296 46.1654 45.0647 46.2725 44.8344 46.3816C44.7891 46.4143 44.7603 46.468 44.7177 46.5046C44.5578 46.6328 44.4189 46.7852 44.306 46.9563L44.2924 46.9714L40.8812 52.6522L37.3946 36.7307L39.957 36.8527C40.7688 36.8952 41.5712 36.6632 42.2347 36.194C42.8983 35.7248 43.3842 35.0459 43.6141 34.2669L43.957 33.0569L53.7063 47.2554L46.3369 46.0281Z" fill="#FCC752"/>
<rect width="24" height="24" transform="translate(18 9)" fill="#FCC752"/>
<path d="M31.7812 15.1172V26.5H29.3359V17.8984L26.6953 18.7031V16.8125L31.5391 15.1172H31.7812Z" fill="white"/>
</g>
<defs>
<clipPath id="clip0_1251_6159">
<rect width="60" height="60" fill="white"/>
</clipPath>
</defs>
</svg>
